<svg xmlns="http://www.w3.org/2000/svg" width="347" height="40" viewBox="0 0 347 40" fill="none"><g clip-path="url(#clip0_367_3787)"><path d="M20.1674 0.61667C22.0416 0.162072 24.0551 0.433337 25.7853 1.2615C26.8115 1.84885 27.519 2.87242 27.896 3.97127C28.4556 5.59138 28.4781 7.33794 28.3446 9.02874C28.1174 11.4897 27.5271 13.9109 26.6837 16.2333C26.3871 17.0218 26.0726 17.8092 25.6483 18.5402C25.5633 18.6874 25.4708 18.8316 25.3506 18.9535C25.7767 17.8443 26.1044 16.7 26.379 15.5454C26.7588 13.8971 27.0097 12.2109 26.9912 10.5167C26.9797 8.89311 26.7086 7.22702 25.9102 5.79138C25.0841 4.29138 23.6059 3.14253 21.9179 2.78104C20.5056 2.47701 19.0303 2.76035 17.718 3.31495C15.9571 4.06092 14.4084 5.22299 13.0088 6.5069C12.2937 7.16897 11.6232 7.87759 10.9884 8.6161C11.9371 6.94541 13.1164 5.40115 14.4766 4.03966C16.0566 2.47184 17.9666 1.13334 20.1674 0.61667Z" fill="#DE221A"></path><path d="M14.9744 2.89597C12.5528 5.23217 10.5075 7.94482 8.85005 10.8638C7.8933 12.569 7.0753 14.3529 6.44807 16.204C5.85436 17.9241 5.44391 19.7046 5.18666 21.5046C4.9612 23.0402 4.86004 24.5977 4.95774 26.1483C5.06873 27.7029 5.39362 29.277 6.17 30.6465C6.77122 31.6937 7.67363 32.6494 8.85525 33.0247C8.79166 33.0931 8.69165 33.0965 8.60725 33.1247C7.50771 33.4213 6.32088 33.5138 5.21441 33.2006C4.36056 32.9626 3.59806 32.423 3.09627 31.696C2.43377 30.7471 2.16958 29.5868 2.06726 28.4529C1.91695 26.4833 2.19733 24.5103 2.60315 22.5862C2.88758 21.2529 3.24484 19.9362 3.64488 18.6333C3.73795 18.3448 3.81137 18.0483 3.93566 17.7707C4.72592 16.0017 5.637 14.2873 6.63017 12.623C7.92047 10.4776 9.36513 8.4178 11.0272 6.53907C12.2169 5.19884 13.5211 3.95114 14.9744 2.89597Z" fill="#DE221A"></path><path d="M25.5674 19.2448C27.4526 19.2316 29.3383 19.2419 31.224 19.2396C31.2246 19.6931 31.224 20.146 31.2246 20.5994C30.5217 20.6029 29.8181 20.5965 29.1152 20.6029C29.1192 22.8276 29.114 25.0523 29.1175 27.2776C28.6405 27.2793 28.1636 27.2713 27.6873 27.2816C27.6688 25.0552 27.6826 22.8276 27.6797 20.6006C26.9756 20.5977 26.2715 20.6046 25.5674 20.5971C25.5737 20.1465 25.5737 19.6954 25.5674 19.2448Z" fill="#DE221A"></path><path d="M7.25338 19.3408C8.16966 19.3425 9.08652 19.3414 10.0034 19.342C10.5248 19.3471 11.0486 19.3517 11.5665 19.4219C12.2071 19.5155 12.7696 19.9443 13.0771 20.5035C13.3089 20.9276 13.3777 21.4201 13.3667 21.8971C13.3529 22.3523 13.2505 22.8173 12.9898 23.1983C12.6337 23.7644 12.0001 24.1385 11.3365 24.2115C10.5173 24.3115 9.69063 24.2793 8.868 24.2822C8.86742 25.2782 8.86048 26.2747 8.87147 27.2713C8.33153 27.2828 7.79101 27.277 7.25049 27.2742C7.25858 24.6299 7.2528 21.9851 7.25338 19.3408ZM8.86395 20.6897C8.86858 21.4374 8.86684 22.1851 8.86511 22.9328C9.47153 22.9431 10.0814 22.9529 10.6861 22.8885C10.9821 22.8575 11.2758 22.7299 11.4671 22.4971C11.7417 22.1638 11.7804 21.6673 11.5874 21.2862C11.4064 20.942 11.0226 20.7402 10.6404 20.7173C10.0496 20.6782 9.45592 20.6707 8.86395 20.6897Z" fill="#DE221A"></path><path d="M13.5957 19.3488C15.482 19.3368 17.3695 19.3448 19.2564 19.3448C19.2558 19.7977 19.2564 20.25 19.2558 20.7029C18.5506 20.7121 17.8447 20.6908 17.14 20.7138C17.155 22.9362 17.1446 25.1598 17.1452 27.3828C16.666 27.377 16.1873 27.3816 15.7086 27.3805C15.711 25.1552 15.7081 22.9299 15.7104 20.7046C15.0068 20.7029 14.3033 20.7052 13.5998 20.704C13.5998 20.2517 13.6073 19.8 13.5957 19.3488Z" fill="#DE221A"></path><path d="M21.5421 22.3488C22.0878 22.8885 22.633 23.4287 23.1741 23.9736C23.1683 25.0747 23.1735 26.1764 23.1718 27.2776C22.6278 27.3132 22.0838 27.3437 21.5398 27.381C21.5427 25.7034 21.5386 24.0264 21.5421 22.3488Z" fill="#DE221A"></path><path d="M19.7587 25.45C20.3114 24.6799 20.8404 23.8621 21.0884 22.9391C21.1161 24.2793 21.0832 25.6195 21.1005 26.9603C21.0993 27.0316 21.0537 27.0908 21.0242 27.1535C20.0247 29.0213 18.4771 30.5374 16.7972 31.8069C15.645 32.6718 14.4085 33.4224 13.1297 34.0879C12.3111 34.5184 11.4498 34.8753 10.5491 35.0948C9.39118 35.3793 8.16214 35.4282 6.99959 35.1425C5.49134 34.7764 4.12993 33.8724 3.18127 32.6552C3.89349 33.3799 4.88839 33.7747 5.89023 33.8839C7.21291 34.0345 8.54542 33.7397 9.77734 33.2707C11.6972 32.5305 13.4113 31.3604 15.0212 30.1012C16.7648 28.7322 18.432 27.2316 19.7587 25.45Z" fill="#DE221A"></path><path d="M0.663666 36.0431C5.2416 36.0494 9.82012 36.0454 14.3981 36.0454C15.0606 36.0339 15.7913 36.0368 16.348 36.446C16.8856 36.0195 17.614 36.0351 18.2655 36.0414C22.759 36.0437 27.252 36.0437 31.745 36.042C31.7444 36.2437 31.7496 36.446 31.7409 36.6489C27.1352 36.6494 22.5295 36.6512 17.9239 36.6466C17.5521 36.6506 17.1573 36.669 16.8272 36.8558C16.7312 36.904 16.6752 36.9966 16.633 37.0908C16.4364 37.0983 16.2404 37.1081 16.0445 37.1218C16.0306 36.9213 15.8335 36.8259 15.6641 36.7724C15.123 36.5983 14.5472 36.6627 13.9888 36.6535C9.54726 36.6558 5.10575 36.6483 0.664244 36.6569C0.659619 36.4523 0.660776 36.2477 0.663666 36.0431Z" fill="#DE221A"></path><path d="M0.660767 37.0931C5.35664 37.0954 10.0519 37.0937 14.7472 37.0937C15.245 37.1264 15.7254 37.3678 16.0323 37.7615C16.0335 38.3914 16.0329 39.0218 16.0323 39.6517C15.7254 39.1023 15.0455 38.9235 14.4553 38.923C9.85769 38.9368 5.26009 38.9609 0.663079 38.9902C0.65961 38.358 0.663657 37.7253 0.660767 37.0931Z" fill="#DE221A"></path><path d="M16.3711 37.7672C16.6798 37.3598 17.1775 37.1195 17.6863 37.0919C22.3694 37.0942 27.0531 37.0983 31.7363 37.0902C31.7583 37.7218 31.7392 38.3552 31.7455 38.9873C27.1364 38.9649 22.5272 38.9339 17.9175 38.9235C17.3377 38.9287 16.6815 39.112 16.3734 39.6437C16.3711 39.0184 16.3769 38.3925 16.3711 37.7672Z" fill="#DE221A"></path><path d="M23.9944 15.2569C24.0135 15.1839 24.0551 15.1195 24.0921 15.054C23.9135 16.4563 23.6869 17.8534 23.4932 19.2546C23.1151 19.4408 22.759 19.6718 22.3717 19.8396C22.807 18.5919 23.2683 17.3534 23.714 16.1092C23.8106 15.8259 23.936 15.5517 23.9944 15.2569Z" fill="#B89C0E"></path><path d="M19.8275 19.2626C20.423 19.5247 21.0091 19.808 21.6034 20.0724C21.6826 20.1052 21.7555 20.1517 21.8219 20.2063C21.4115 20.3586 20.9993 20.5063 20.5889 20.6592C20.3333 20.1948 20.0651 19.7362 19.8275 19.2626Z" fill="#B89C0E"></path><path d="M18.9568 23.5006C19.9807 22.5126 20.9917 21.5109 22.0219 20.5299C22.3954 21.4557 22.7931 22.3736 23.1359 23.3103C22.7064 22.846 22.2988 22.3609 21.8866 21.881C20.8703 22.4621 19.8795 23.0902 18.8551 23.6563C18.8829 23.6006 18.91 23.5431 18.9568 23.5006Z" fill="#B89C0E"></path><path d="M21.8081 19.2253C22.5371 17.9029 23.2481 16.5695 23.9944 15.2569C23.9361 15.5517 23.8106 15.8259 23.7141 16.1092C23.2684 17.3534 22.807 18.592 22.3717 19.8397C22.7591 19.6718 23.1152 19.4408 23.4932 19.2546C24.0962 19.2345 24.7003 19.2534 25.3038 19.2293C25.3056 19.2448 25.3096 19.2753 25.3113 19.2908C25.2986 19.2931 25.2738 19.2977 25.2611 19.3006C25.1501 19.3207 25.0402 19.3431 24.9338 19.3799C24.0372 19.6943 23.1366 19.9966 22.2399 20.3103C22.5348 20.4822 22.8654 20.581 23.1724 20.7293C23.1678 21.6086 23.1793 22.4885 23.1666 23.3678C23.1585 23.3534 23.1435 23.3247 23.136 23.3103C22.7932 22.3736 22.3954 21.4557 22.022 20.5299C20.9918 21.5109 19.9807 22.5126 18.9569 23.5006C18.9101 23.5431 18.8829 23.6006 18.8552 23.6563C18.8205 23.7207 18.7332 23.7322 18.6771 23.7724C19.3217 22.7397 19.9489 21.6954 20.5889 20.6592C20.9993 20.5063 21.4115 20.3586 21.822 20.2063C21.7555 20.1517 21.6826 20.1052 21.6034 20.0724C21.0092 19.808 20.423 19.5247 19.8275 19.2626L19.8056 19.2534C20.4727 19.2368 21.1404 19.242 21.8081 19.2253Z" fill="#EFF003"></path><path d="M24.9338 19.3799C25.0402 19.3431 25.15 19.3207 25.261 19.3006C24.5713 19.7862 23.8684 20.2534 23.1723 20.7293C22.8654 20.581 22.5347 20.4822 22.2399 20.3103C23.1365 19.9965 24.0372 19.6942 24.9338 19.3799Z" fill="#B89C0D"></path></g><path d="M45.5975 16.75V7.59033H47.5145V11.3101H51.6405V7.59033H53.5575V16.75H51.6405V12.8906H47.5145V16.75H45.5975ZM59.4733 16.9087C56.7501 16.9087 55.0553 15.0869 55.0553 12.1733V12.1606C55.0553 9.24707 56.7628 7.43164 59.4733 7.43164C62.1901 7.43164 63.8912 9.25342 63.8912 12.1606V12.1733C63.8912 15.0869 62.1964 16.9087 59.4733 16.9087ZM59.4733 15.2837C60.9967 15.2837 61.9361 14.0713 61.9361 12.1733V12.1606C61.9361 10.25 60.9777 9.05664 59.4733 9.05664C57.9752 9.05664 57.0104 10.2437 57.0104 12.1606V12.1733C57.0104 14.0903 57.9689 15.2837 59.4733 15.2837ZM59.4733 19.5493C58.9147 19.5493 58.483 19.1113 58.483 18.5845C58.483 18.0576 58.9147 17.6196 59.4733 17.6196C60.0319 17.6196 60.4635 18.0576 60.4635 18.5845C60.4635 19.1113 60.0319 19.5493 59.4733 19.5493ZM69.4642 16.9087C66.7855 16.9087 65.1034 15.1187 65.1034 12.167V12.1606C65.1034 9.20898 66.7919 7.43164 69.4642 7.43164C71.6859 7.43164 73.2792 8.83447 73.4569 10.7769L73.4632 10.834H71.597L71.5716 10.7261C71.3558 9.7168 70.6068 9.05664 69.4642 9.05664C67.9979 9.05664 67.0585 10.2373 67.0585 12.1543V12.1606C67.0585 14.0903 67.9979 15.2837 69.4642 15.2837C70.5687 15.2837 71.3431 14.6489 71.5907 13.5635L71.6034 13.5H73.4696L73.4632 13.5698C73.2855 15.5186 71.6795 16.9087 69.4642 16.9087ZM80.2357 16.75L77.1698 7.59033H79.2899L81.3846 14.7886H81.4227L83.5111 7.59033H85.6375L82.5716 16.75H80.2357ZM86.837 16.75V7.59033H88.754V16.75H86.837ZM91.3626 6.83496L92.8226 4.74023H94.3079L95.7869 6.83496H94.4666L93.5589 5.56543L92.6829 6.83496H91.3626ZM90.5374 16.75V7.59033H96.6058V9.1709H92.4544V11.3672H96.3709V12.8652H92.4544V15.1694H96.6058V16.75H90.5374ZM93.5716 19.5493C93.0194 19.5493 92.5814 19.1113 92.5814 18.5845C92.5814 18.0576 93.0194 17.6196 93.5716 17.6196C94.1302 17.6196 94.5618 18.0576 94.5618 18.5845C94.5618 19.1113 94.1302 19.5493 93.5716 19.5493ZM98.2496 16.75V7.59033H99.9253L104.064 13.5444H104.102V7.59033H106.013V16.75H104.35L100.198 10.7515H100.16V16.75H98.2496ZM114.715 16.9087C112.036 16.9087 110.354 15.1187 110.354 12.167V12.1606C110.354 9.20898 112.043 7.43164 114.715 7.43164C116.937 7.43164 118.53 8.83447 118.708 10.7769L118.714 10.834H116.848L116.822 10.7261C116.606 9.7168 115.857 9.05664 114.715 9.05664C113.249 9.05664 112.309 10.2373 112.309 12.1543V12.1606C112.309 14.0903 113.249 15.2837 114.715 15.2837C115.819 15.2837 116.594 14.6489 116.841 13.5635L116.854 13.5H118.72L118.714 13.5698C118.536 15.5186 116.93 16.9087 114.715 16.9087ZM122.084 6.83496L123.551 4.74023H125.036L126.509 6.83496H125.188L124.281 5.56543L123.405 6.83496H122.084ZM124.3 16.9087C121.576 16.9087 119.882 15.0869 119.882 12.1733V12.1606C119.882 9.24707 121.589 7.43164 124.3 7.43164C127.016 7.43164 128.718 9.25342 128.718 12.1606V12.1733C128.718 15.0869 127.023 16.9087 124.3 16.9087ZM124.3 15.2837C125.823 15.2837 126.762 14.0713 126.762 12.1733V12.1606C126.762 10.25 125.804 9.05664 124.3 9.05664C122.802 9.05664 121.837 10.2437 121.837 12.1606V12.1733C121.837 14.0903 122.795 15.2837 124.3 15.2837ZM130.215 16.75V7.59033H131.891L136.03 13.5444H136.068V7.59033H137.979V16.75H136.315L132.164 10.7515H132.126V16.75H130.215ZM143.894 16.9087C141.158 16.9087 139.483 15.125 139.483 12.1416V12.1353C139.483 9.20264 141.165 7.43164 143.85 7.43164C146.052 7.43164 147.551 8.71387 147.855 10.4341L147.874 10.5229H145.951L145.926 10.4595C145.621 9.5708 144.891 9.05664 143.856 9.05664C142.345 9.05664 141.438 10.1738 141.438 12.1162V12.1226C141.438 14.1094 142.403 15.2837 143.926 15.2837C145.177 15.2837 146.033 14.541 146.084 13.4111L146.091 13.2778H143.996V11.8496H147.957V12.9033C147.957 15.3979 146.446 16.9087 143.894 16.9087ZM152.323 16.75V7.59033H153.999L158.138 13.5444H158.176V7.59033H160.087V16.75H158.424L154.272 10.7515H154.234V16.75H152.323ZM166.002 16.9087C163.267 16.9087 161.591 15.125 161.591 12.1416V12.1353C161.591 9.20264 163.273 7.43164 165.958 7.43164C168.161 7.43164 169.659 8.71387 169.963 10.4341L169.982 10.5229H168.059L168.034 10.4595C167.729 9.5708 166.999 9.05664 165.964 9.05664C164.454 9.05664 163.546 10.1738 163.546 12.1162V12.1226C163.546 14.1094 164.511 15.2837 166.034 15.2837C167.285 15.2837 168.142 14.541 168.192 13.4111L168.199 13.2778H166.104V11.8496H170.065V12.9033C170.065 15.3979 168.554 16.9087 166.002 16.9087ZM171.594 16.75V7.59033H173.511V11.3101H177.637V7.59033H179.554V16.75H177.637V12.8906H173.511V16.75H171.594ZM182.163 6.83496L183.623 4.74023H185.108L186.587 6.83496H185.267L184.359 5.56543L183.483 6.83496H182.163ZM181.338 16.75V7.59033H187.406V9.1709H183.255V11.3672H187.171V12.8652H183.255V15.1694H187.406V16.75H181.338ZM184.372 19.5493C183.82 19.5493 183.382 19.1113 183.382 18.5845C183.382 18.0576 183.82 17.6196 184.372 17.6196C184.931 17.6196 185.362 18.0576 185.362 18.5845C185.362 19.1113 184.931 19.5493 184.372 19.5493ZM191.887 16.75V7.59033H195.873C197.6 7.59033 198.685 8.479 198.685 9.88818V9.90088C198.685 10.9038 197.924 11.7607 196.914 11.894V11.9321C198.19 12.0273 199.111 12.9287 199.111 14.1284V14.1411C199.111 15.7471 197.898 16.75 195.943 16.75H191.887ZM195.378 9.01221H193.804V11.418H195.143C196.223 11.418 196.8 10.9673 196.8 10.1738V10.1611C196.8 9.43115 196.273 9.01221 195.378 9.01221ZM195.372 12.7192H193.804V15.3218H195.455C196.553 15.3218 197.156 14.8711 197.156 14.0205V14.0078C197.156 13.1699 196.546 12.7192 195.372 12.7192ZM204.303 16.9087C201.954 16.9087 200.463 15.5503 200.463 13.5127V7.59033H202.38V13.3413C202.38 14.5283 203.071 15.2837 204.303 15.2837C205.534 15.2837 206.22 14.5283 206.22 13.3413V7.59033C207.616 7.41895 207.927 7.01904 207.915 5.67969H209.343C209.343 7.03809 209.032 7.74268 208.137 8.14258V13.5127C208.137 15.5439 206.664 16.9087 204.303 16.9087ZM214.084 16.9087C211.736 16.9087 210.244 15.5503 210.244 13.5127V7.59033H212.161V13.3413C212.161 14.5283 212.853 15.2837 214.084 15.2837C215.316 15.2837 216.001 14.5283 216.001 13.3413V7.59033H217.918V13.5127C217.918 15.5439 216.446 16.9087 214.084 16.9087ZM226.62 16.9087C223.942 16.9087 222.26 15.1187 222.26 12.167V12.1606C222.26 9.20898 223.948 7.43164 226.62 7.43164C228.842 7.43164 230.435 8.83447 230.613 10.7769L230.62 10.834H228.753L228.728 10.7261C228.512 9.7168 227.763 9.05664 226.62 9.05664C225.154 9.05664 224.215 10.2373 224.215 12.1543V12.1606C224.215 14.0903 225.154 15.2837 226.62 15.2837C227.725 15.2837 228.499 14.6489 228.747 13.5635L228.76 13.5H230.626L230.62 13.5698C230.442 15.5186 228.836 16.9087 226.62 16.9087ZM232.073 16.75V7.59033H233.99V11.3101H238.116V7.59033H240.033V16.75H238.116V12.8906H233.99V16.75H232.073ZM243.251 6.83496H242.019L243.124 4.74023H244.749L243.251 6.83496ZM241.816 16.75V7.59033H243.733V16.75H241.816ZM245.517 16.75V7.59033H247.192L251.331 13.5444H251.369V7.59033H253.28V16.75H251.617L247.465 10.7515H247.427V16.75H245.517ZM255.07 16.75V7.59033H256.987V11.3101H261.113V7.59033H263.03V16.75H261.113V12.8906H256.987V16.75H255.07ZM270.132 16.75L267.066 7.59033H269.186L271.281 14.7886H271.319L273.408 7.59033H275.534L272.468 16.75H270.132ZM276.733 16.75V7.59033H278.65V16.75H276.733ZM284.268 5.62891C283.97 5.62891 283.697 5.55908 283.43 5.41309L283.271 5.31787C283.1 5.22266 282.986 5.17822 282.84 5.17822C282.63 5.17822 282.541 5.33057 282.541 5.60986V5.62891H281.608V5.57178C281.608 4.79102 282.059 4.37207 282.668 4.37207C282.954 4.37207 283.233 4.44824 283.493 4.60059L283.659 4.68945C283.83 4.79102 283.944 4.8291 284.103 4.8291C284.306 4.8291 284.401 4.67676 284.401 4.39746V4.37207H285.328V4.4292C285.328 5.21631 284.871 5.62891 284.268 5.62891ZM282.852 5.88916H284.077L285.449 7.17139H284.179L283.462 6.49854L282.763 7.17139H281.494L282.852 5.88916ZM280.434 16.75V7.59033H286.502V9.1709H282.351V11.3672H286.267V12.8652H282.351V15.1694H286.502V16.75H280.434ZM288.146 16.75V7.59033H289.822L293.961 13.5444H293.999V7.59033H295.909V16.75H294.246L290.095 10.7515H290.057V16.75H288.146ZM302.726 16.75V9.1709H300.079V7.59033H307.296V9.1709H304.643V16.75H302.726ZM308.616 16.75V7.59033H310.533V11.3101H314.659V7.59033H316.576V16.75H314.659V12.8906H310.533V16.75H308.616ZM320.277 6.83496L321.743 4.74023H323.229L324.701 6.83496H323.381L322.473 5.56543L321.597 6.83496H320.277ZM322.492 16.9087C319.769 16.9087 318.074 15.0869 318.074 12.1733V12.1606C318.074 9.24707 319.782 7.43164 322.492 7.43164C325.209 7.43164 326.91 9.25342 326.91 12.1606V12.1733C326.91 15.0869 325.215 16.9087 322.492 16.9087ZM322.492 15.2837C324.016 15.2837 324.955 14.0713 324.955 12.1733V12.1606C324.955 10.25 323.997 9.05664 322.492 9.05664C320.994 9.05664 320.029 10.2437 320.029 12.1606V12.1733C320.029 14.0903 320.988 15.2837 322.492 15.2837ZM328.408 16.75V7.59033H330.084L334.222 13.5444H334.26V7.59033H336.171V16.75H334.508L330.357 10.7515H330.319V16.75H328.408ZM342.087 16.9087C339.351 16.9087 337.675 15.125 337.675 12.1416V12.1353C337.675 9.20264 339.357 7.43164 342.042 7.43164C344.245 7.43164 345.743 8.71387 346.048 10.4341L346.067 10.5229H344.144L344.118 10.4595C343.813 9.5708 343.083 9.05664 342.049 9.05664C340.538 9.05664 339.63 10.1738 339.63 12.1162V12.1226C339.63 14.1094 340.595 15.2837 342.119 15.2837C343.369 15.2837 344.226 14.541 344.277 13.4111L344.283 13.2778H342.188V11.8496H346.149V12.9033C346.149 15.3979 344.639 16.9087 342.087 16.9087Z" fill="#BC2626"></path><path d="M45.6151 33.25V24.7949H48.7616C50.4198 24.7949 51.5682 25.9082 51.5682 27.5664V27.5781C51.5682 29.2305 50.4198 30.3613 48.7616 30.3613H46.9276V33.25H45.6151ZM48.4335 25.9023H46.9276V29.2598H48.4335C49.576 29.2598 50.2323 28.6445 50.2323 27.584V27.5723C50.2323 26.5176 49.576 25.9023 48.4335 25.9023ZM55.3632 33.373C53.5937 33.373 52.4394 32.1484 52.4394 30.168V30.1562C52.4394 28.1875 53.6054 26.9688 55.3574 26.9688C57.1152 26.9688 58.2871 28.1816 58.2871 30.1562V30.168C58.2871 32.1543 57.1269 33.373 55.3632 33.373ZM55.3691 32.3125C56.3593 32.3125 56.9921 31.5273 56.9921 30.168V30.1562C56.9921 28.8086 56.3476 28.0293 55.3574 28.0293C54.3847 28.0293 53.7343 28.8086 53.7343 30.1562V30.168C53.7343 31.5332 54.3789 32.3125 55.3691 32.3125ZM61.9942 33.373C60.4532 33.373 59.5508 32.6113 59.4219 31.4863L59.416 31.4336H60.67L60.6817 31.4922C60.7989 32.0605 61.2207 32.3945 62 32.3945C62.7618 32.3945 63.2188 32.0781 63.2188 31.5801V31.5742C63.2188 31.1758 62.9961 30.9473 62.334 30.7891L61.3262 30.5605C60.1543 30.291 59.5743 29.7285 59.5743 28.832V28.8262C59.5743 27.7246 60.5352 26.9688 61.9532 26.9688C63.4121 26.9688 64.291 27.7832 64.3555 28.832L64.3614 28.9023H63.1719L63.166 28.8613C63.0899 28.3223 62.668 27.9473 61.9532 27.9473C61.2735 27.9473 60.8457 28.2695 60.8457 28.7617V28.7676C60.8457 29.1484 61.0977 29.4062 61.7598 29.5645L62.7618 29.793C64.0215 30.0859 64.502 30.584 64.502 31.4688V31.4746C64.502 32.5996 63.4473 33.373 61.9942 33.373ZM68.0685 33.373C66.8497 33.373 66.2638 32.8574 66.2638 31.627V28.0938H65.379V27.0859H66.2638V25.4805H67.5587V27.0859H68.713V28.0938H67.5587V31.5508C67.5587 32.1777 67.84 32.3652 68.3732 32.3652C68.5079 32.3652 68.6193 32.3535 68.713 32.3418V33.3203C68.5665 33.3438 68.3263 33.373 68.0685 33.373ZM72.4904 33.373C70.9494 33.373 70.0471 32.6113 69.9182 31.4863L69.9123 31.4336H71.1662L71.1779 31.4922C71.2951 32.0605 71.717 32.3945 72.4963 32.3945C73.258 32.3945 73.715 32.0781 73.715 31.5801V31.5742C73.715 31.1758 73.4924 30.9473 72.8303 30.7891L71.8225 30.5605C70.6506 30.291 70.0705 29.7285 70.0705 28.832V28.8262C70.0705 27.7246 71.0314 26.9688 72.4494 26.9688C73.9084 26.9688 74.7873 27.7832 74.8518 28.832L74.8576 28.9023H73.6682L73.6623 28.8613C73.5861 28.3223 73.1643 27.9473 72.4494 27.9473C71.7697 27.9473 71.342 28.2695 71.342 28.7617V28.7676C71.342 29.1484 71.5939 29.4062 72.2561 29.5645L73.258 29.793C74.5178 30.0859 74.9982 30.584 74.9982 31.4688V31.4746C74.9982 32.5996 73.9436 33.373 72.4904 33.373ZM81.0707 33.3613C79.8402 33.3613 79.014 32.6055 79.014 31.498V31.4863C79.014 30.4141 79.8461 29.7578 81.305 29.6699L82.9808 29.5703V29.1074C82.9808 28.4277 82.5414 28.0176 81.7562 28.0176C81.0238 28.0176 80.5726 28.3633 80.4671 28.8555L80.4554 28.9082H79.2601L79.266 28.8438C79.3539 27.7832 80.2738 26.9688 81.7914 26.9688C83.2972 26.9688 84.2523 27.7656 84.2523 29.002V33.25H82.9808V32.2773H82.9574C82.6 32.9395 81.8851 33.3613 81.0707 33.3613ZM80.2914 31.4688C80.2914 32.0078 80.7367 32.3477 81.4164 32.3477C82.307 32.3477 82.9808 31.7441 82.9808 30.9414V30.4609L81.475 30.5547C80.7132 30.6016 80.2914 30.9355 80.2914 31.457V31.4688ZM85.9028 33.25V27.0859H87.1684V28.0176H87.1977C87.52 27.3906 88.1528 26.9688 89.0844 26.9688C90.4379 26.9688 91.2172 27.8418 91.2172 29.2598V33.25H89.9457V29.5C89.9457 28.5742 89.5121 28.0527 88.6332 28.0527C87.7426 28.0527 87.1684 28.6973 87.1684 29.6582V33.25H85.9028ZM95.1646 33.373C93.5943 33.373 92.5864 32.1309 92.5864 30.168V30.1621C92.5864 28.1992 93.606 26.9688 95.1528 26.9688C96.0259 26.9688 96.729 27.4082 97.0982 28.1348H97.1216V24.7949H98.3931V33.25H97.1216V32.207H97.0982C96.729 32.9277 96.0493 33.373 95.1646 33.373ZM95.4986 32.2832C96.4536 32.2832 97.1275 31.4512 97.1275 30.168V30.1621C97.1275 28.8848 96.4478 28.0527 95.4986 28.0527C94.5025 28.0527 93.8814 28.8613 93.8814 30.1621V30.168C93.8814 31.4805 94.4966 32.2832 95.4986 32.2832ZM105.221 33.25V25.9258H102.632V24.7949H109.118V25.9258H106.534V33.25H105.221ZM111.577 33.373C109.766 33.373 108.671 32.1367 108.671 30.1914V30.1855C108.671 28.2578 109.784 26.9688 111.512 26.9688C113.241 26.9688 114.302 28.2109 114.302 30.0625V30.4902H109.936C109.96 31.6562 110.598 32.3359 111.606 32.3359C112.356 32.3359 112.854 31.9492 113.012 31.4863L113.03 31.4395H114.231L114.219 31.5039C114.02 32.4824 113.071 33.373 111.577 33.373ZM111.518 28.0059C110.698 28.0059 110.065 28.5625 109.954 29.5938H113.048C112.942 28.5273 112.344 28.0059 111.518 28.0059ZM115.753 33.25V24.7949H117.018V33.25H115.753ZM121.37 33.373C119.559 33.373 118.464 32.1367 118.464 30.1914V30.1855C118.464 28.2578 119.577 26.9688 121.306 26.9688C123.034 26.9688 124.095 28.2109 124.095 30.0625V30.4902H119.729C119.753 31.6562 120.392 32.3359 121.399 32.3359C122.149 32.3359 122.647 31.9492 122.806 31.4863L122.823 31.4395H124.024L124.013 31.5039C123.813 32.4824 122.864 33.373 121.37 33.373ZM121.311 28.0059C120.491 28.0059 119.858 28.5625 119.747 29.5938H122.841C122.735 28.5273 122.138 28.0059 121.311 28.0059ZM128.147 33.373C126.349 33.373 125.224 32.1367 125.224 30.1621V30.1562C125.224 28.2051 126.372 26.9688 128.13 26.9688C129.718 26.9688 130.679 27.9883 130.784 29.1484L130.79 29.1895H129.583L129.571 29.1426C129.437 28.5391 128.968 28.0293 128.142 28.0293C127.157 28.0293 126.519 28.8496 126.519 30.168V30.1738C126.519 31.5215 127.169 32.3125 128.147 32.3125C128.927 32.3125 129.425 31.8613 129.577 31.1934L129.583 31.1465H130.802L130.796 31.1875C130.661 32.4238 129.63 33.373 128.147 33.373ZM134.767 33.373C132.997 33.373 131.843 32.1484 131.843 30.168V30.1562C131.843 28.1875 133.009 26.9688 134.761 26.9688C136.519 26.9688 137.691 28.1816 137.691 30.1562V30.168C137.691 32.1543 136.53 33.373 134.767 33.373ZM134.773 32.3125C135.763 32.3125 136.396 31.5273 136.396 30.168V30.1562C136.396 28.8086 135.751 28.0293 134.761 28.0293C133.788 28.0293 133.138 28.8086 133.138 30.1562V30.168C133.138 31.5332 133.782 32.3125 134.773 32.3125ZM139.089 33.25V27.0859H140.355V28.041H140.384C140.648 27.3965 141.275 26.9688 142.083 26.9688C142.933 26.9688 143.554 27.4082 143.8 28.1816H143.829C144.146 27.4316 144.872 26.9688 145.751 26.9688C146.97 26.9688 147.767 27.7773 147.767 29.0137V33.25H146.495V29.3184C146.495 28.5156 146.068 28.0527 145.318 28.0527C144.568 28.0527 144.046 28.6152 144.046 29.3945V33.25H142.804V29.2246C142.804 28.5098 142.353 28.0527 141.638 28.0527C140.888 28.0527 140.355 28.6445 140.355 29.4414V33.25H139.089ZM149.411 33.25V27.0859H150.677V28.041H150.706C150.97 27.3965 151.597 26.9688 152.406 26.9688C153.255 26.9688 153.876 27.4082 154.122 28.1816H154.152C154.468 27.4316 155.195 26.9688 156.073 26.9688C157.292 26.9688 158.089 27.7773 158.089 29.0137V33.25H156.818V29.3184C156.818 28.5156 156.39 28.0527 155.64 28.0527C154.89 28.0527 154.368 28.6152 154.368 29.3945V33.25H153.126V29.2246C153.126 28.5098 152.675 28.0527 151.96 28.0527C151.21 28.0527 150.677 28.6445 150.677 29.4414V33.25H149.411ZM161.831 33.373C160.478 33.373 159.704 32.5 159.704 31.082V27.0859H160.97V30.8359C160.97 31.7676 161.404 32.2832 162.283 32.2832C163.173 32.2832 163.747 31.6445 163.747 30.6836V27.0859H165.019V33.25H163.747V32.3242H163.718C163.396 32.9453 162.769 33.373 161.831 33.373ZM166.693 33.25V27.0859H167.958V28.0176H167.988C168.31 27.3906 168.943 26.9688 169.874 26.9688C171.228 26.9688 172.007 27.8418 172.007 29.2598V33.25H170.736V29.5C170.736 28.5742 170.302 28.0527 169.423 28.0527C168.533 28.0527 167.958 28.6973 167.958 29.6582V33.25H166.693ZM174.337 26.1367C173.927 26.1367 173.599 25.8086 173.599 25.4102C173.599 25.0059 173.927 24.6777 174.337 24.6777C174.753 24.6777 175.076 25.0059 175.076 25.4102C175.076 25.8086 174.753 26.1367 174.337 26.1367ZM173.705 33.25V27.0859H174.97V33.25H173.705ZM179.345 33.373C177.546 33.373 176.421 32.1367 176.421 30.1621V30.1562C176.421 28.2051 177.57 26.9688 179.328 26.9688C180.916 26.9688 181.877 27.9883 181.982 29.1484L181.988 29.1895H180.781L180.769 29.1426C180.634 28.5391 180.166 28.0293 179.339 28.0293C178.355 28.0293 177.716 28.8496 177.716 30.168V30.1738C177.716 31.5215 178.367 32.3125 179.345 32.3125C180.125 32.3125 180.623 31.8613 180.775 31.1934L180.781 31.1465H182L181.994 31.1875C181.859 32.4238 180.828 33.373 179.345 33.373ZM185.127 33.3613C183.896 33.3613 183.07 32.6055 183.07 31.498V31.4863C183.07 30.4141 183.902 29.7578 185.361 29.6699L187.037 29.5703V29.1074C187.037 28.4277 186.597 28.0176 185.812 28.0176C185.08 28.0176 184.629 28.3633 184.523 28.8555L184.511 28.9082H183.316L183.322 28.8438C183.41 27.7832 184.33 26.9688 185.847 26.9688C187.353 26.9688 188.308 27.7656 188.308 29.002V33.25H187.037V32.2773H187.013C186.656 32.9395 185.941 33.3613 185.127 33.3613ZM184.347 31.4688C184.347 32.0078 184.793 32.3477 185.472 32.3477C186.363 32.3477 187.037 31.7441 187.037 30.9414V30.4609L185.531 30.5547C184.769 30.6016 184.347 30.9355 184.347 31.457V31.4688ZM192.121 33.373C190.902 33.373 190.316 32.8574 190.316 31.627V28.0938H189.431V27.0859H190.316V25.4805H191.611V27.0859H192.765V28.0938H191.611V31.5508C191.611 32.1777 191.892 32.3652 192.426 32.3652C192.56 32.3652 192.672 32.3535 192.765 32.3418V33.3203C192.619 33.3438 192.379 33.373 192.121 33.373ZM194.92 26.1367C194.51 26.1367 194.181 25.8086 194.181 25.4102C194.181 25.0059 194.51 24.6777 194.92 24.6777C195.336 24.6777 195.658 25.0059 195.658 25.4102C195.658 25.8086 195.336 26.1367 194.92 26.1367ZM194.287 33.25V27.0859H195.553V33.25H194.287ZM199.928 33.373C198.158 33.373 197.004 32.1484 197.004 30.168V30.1562C197.004 28.1875 198.17 26.9688 199.922 26.9688C201.68 26.9688 202.851 28.1816 202.851 30.1562V30.168C202.851 32.1543 201.691 33.373 199.928 33.373ZM199.933 32.3125C200.924 32.3125 201.557 31.5273 201.557 30.168V30.1562C201.557 28.8086 200.912 28.0293 199.922 28.0293C198.949 28.0293 198.299 28.8086 198.299 30.1562V30.168C198.299 31.5332 198.943 32.3125 199.933 32.3125ZM204.25 33.25V27.0859H205.516V28.0176H205.545C205.867 27.3906 206.5 26.9688 207.432 26.9688C208.785 26.9688 209.564 27.8418 209.564 29.2598V33.25H208.293V29.5C208.293 28.5742 207.859 28.0527 206.98 28.0527C206.09 28.0527 205.516 28.6973 205.516 29.6582V33.25H204.25ZM213.518 33.373C211.977 33.373 211.074 32.6113 210.945 31.4863L210.939 31.4336H212.193L212.205 31.4922C212.322 32.0605 212.744 32.3945 213.523 32.3945C214.285 32.3945 214.742 32.0781 214.742 31.5801V31.5742C214.742 31.1758 214.52 30.9473 213.857 30.7891L212.85 30.5605C211.678 30.291 211.098 29.7285 211.098 28.832V28.8262C211.098 27.7246 212.059 26.9688 213.477 26.9688C214.936 26.9688 215.814 27.7832 215.879 28.832L215.885 28.9023H214.695L214.689 28.8613C214.613 28.3223 214.191 27.9473 213.477 27.9473C212.797 27.9473 212.369 28.2695 212.369 28.7617V28.7676C212.369 29.1484 212.621 29.4062 213.283 29.5645L214.285 29.793C215.545 30.0859 216.025 30.584 216.025 31.4688V31.4746C216.025 32.5996 214.971 33.373 213.518 33.373ZM220.44 33.25V24.7949H221.752V33.25H220.44ZM223.578 33.25V27.0859H224.844V28.0176H224.873C225.196 27.3906 225.828 26.9688 226.76 26.9688C228.114 26.9688 228.893 27.8418 228.893 29.2598V33.25H227.621V29.5C227.621 28.5742 227.188 28.0527 226.309 28.0527C225.418 28.0527 224.844 28.6973 224.844 29.6582V33.25H223.578ZM232.846 33.373C231.305 33.373 230.403 32.6113 230.274 31.4863L230.268 31.4336H231.522L231.534 31.4922C231.651 32.0605 232.073 32.3945 232.852 32.3945C233.614 32.3945 234.071 32.0781 234.071 31.5801V31.5742C234.071 31.1758 233.848 30.9473 233.186 30.7891L232.178 30.5605C231.006 30.291 230.426 29.7285 230.426 28.832V28.8262C230.426 27.7246 231.387 26.9688 232.805 26.9688C234.264 26.9688 235.143 27.7832 235.207 28.832L235.213 28.9023H234.024L234.018 28.8613C233.942 28.3223 233.52 27.9473 232.805 27.9473C232.125 27.9473 231.698 28.2695 231.698 28.7617V28.7676C231.698 29.1484 231.95 29.4062 232.612 29.5645L233.614 29.793C234.873 30.0859 235.354 30.584 235.354 31.4688V31.4746C235.354 32.5996 234.299 33.373 232.846 33.373ZM238.92 33.373C237.702 33.373 237.116 32.8574 237.116 31.627V28.0938H236.231V27.0859H237.116V25.4805H238.411V27.0859H239.565V28.0938H238.411V31.5508C238.411 32.1777 238.692 32.3652 239.225 32.3652C239.36 32.3652 239.471 32.3535 239.565 32.3418V33.3203C239.418 33.3438 239.178 33.373 238.92 33.373ZM241.719 26.1367C241.309 26.1367 240.981 25.8086 240.981 25.4102C240.981 25.0059 241.309 24.6777 241.719 24.6777C242.135 24.6777 242.458 25.0059 242.458 25.4102C242.458 25.8086 242.135 26.1367 241.719 26.1367ZM241.086 33.25V27.0859H242.352V33.25H241.086ZM246.241 33.373C245.022 33.373 244.436 32.8574 244.436 31.627V28.0938H243.551V27.0859H244.436V25.4805H245.731V27.0859H246.885V28.0938H245.731V31.5508C245.731 32.1777 246.012 32.3652 246.546 32.3652C246.68 32.3652 246.792 32.3535 246.885 32.3418V33.3203C246.739 33.3438 246.499 33.373 246.241 33.373ZM250.452 33.373C249.098 33.373 248.325 32.5 248.325 31.082V27.0859H249.59V30.8359C249.59 31.7676 250.024 32.2832 250.903 32.2832C251.794 32.2832 252.368 31.6445 252.368 30.6836V27.0859H253.639V33.25H252.368V32.3242H252.339C252.016 32.9453 251.389 33.373 250.452 33.373ZM257.475 33.373C256.257 33.373 255.671 32.8574 255.671 31.627V28.0938H254.786V27.0859H255.671V25.4805H256.966V27.0859H258.12V28.0938H256.966V31.5508C256.966 32.1777 257.247 32.3652 257.78 32.3652C257.915 32.3652 258.026 32.3535 258.12 32.3418V33.3203C257.973 33.3438 257.733 33.373 257.475 33.373ZM262.067 33.373C260.257 33.373 259.161 32.1367 259.161 30.1914V30.1855C259.161 28.2578 260.274 26.9688 262.003 26.9688C263.731 26.9688 264.792 28.2109 264.792 30.0625V30.4902H260.427C260.45 31.6562 261.089 32.3359 262.097 32.3359C262.847 32.3359 263.345 31.9492 263.503 31.4863L263.52 31.4395H264.722L264.71 31.5039C264.511 32.4824 263.561 33.373 262.067 33.373ZM262.009 28.0059C261.188 28.0059 260.555 28.5625 260.444 29.5938H263.538C263.432 28.5273 262.835 28.0059 262.009 28.0059ZM271.702 33.373C269.933 33.373 268.778 32.1484 268.778 30.168V30.1562C268.778 28.1875 269.944 26.9688 271.696 26.9688C273.454 26.9688 274.626 28.1816 274.626 30.1562V30.168C274.626 32.1543 273.466 33.373 271.702 33.373ZM271.708 32.3125C272.698 32.3125 273.331 31.5273 273.331 30.168V30.1562C273.331 28.8086 272.687 28.0293 271.696 28.0293C270.724 28.0293 270.073 28.8086 270.073 30.1562V30.168C270.073 31.5332 270.718 32.3125 271.708 32.3125ZM276.394 33.25V28.0938H275.544V27.0859H276.394V26.4297C276.394 25.2344 276.956 24.6719 278.21 24.6719C278.468 24.6719 278.749 24.6953 278.919 24.7246V25.6621C278.796 25.6445 278.638 25.6328 278.48 25.6328C277.911 25.6328 277.642 25.9082 277.642 26.4531V27.0859H278.896V28.0938H277.665V33.25H276.394ZM285.419 33.25V25.9258H282.829V24.7949H289.316V25.9258H286.732V33.25H285.419ZM291.775 33.373C289.964 33.373 288.868 32.1367 288.868 30.1914V30.1855C288.868 28.2578 289.982 26.9688 291.71 26.9688C293.439 26.9688 294.499 28.2109 294.499 30.0625V30.4902H290.134C290.158 31.6562 290.796 32.3359 291.804 32.3359C292.554 32.3359 293.052 31.9492 293.21 31.4863L293.228 31.4395H294.429L294.417 31.5039C294.218 32.4824 293.269 33.373 291.775 33.373ZM291.716 28.0059C290.896 28.0059 290.263 28.5625 290.152 29.5938H293.245C293.14 28.5273 292.542 28.0059 291.716 28.0059ZM298.552 33.373C296.753 33.373 295.628 32.1367 295.628 30.1621V30.1562C295.628 28.2051 296.777 26.9688 298.535 26.9688C300.122 26.9688 301.083 27.9883 301.189 29.1484L301.195 29.1895H299.988L299.976 29.1426C299.841 28.5391 299.372 28.0293 298.546 28.0293C297.562 28.0293 296.923 28.8496 296.923 30.168V30.1738C296.923 31.5215 297.574 32.3125 298.552 32.3125C299.331 32.3125 299.829 31.8613 299.982 31.1934L299.988 31.1465H301.206L301.201 31.1875C301.066 32.4238 300.035 33.373 298.552 33.373ZM302.57 33.25V24.7949H303.835V28.0996H303.865C304.193 27.3848 304.855 26.9688 305.775 26.9688C307.093 26.9688 307.96 27.9531 307.96 29.4414V33.25H306.695V29.6816C306.695 28.6621 306.179 28.0527 305.289 28.0527C304.415 28.0527 303.835 28.7207 303.835 29.6816V33.25H302.57ZM309.611 33.25V27.0859H310.877V28.0176H310.906C311.228 27.3906 311.861 26.9688 312.793 26.9688C314.146 26.9688 314.925 27.8418 314.925 29.2598V33.25H313.654V29.5C313.654 28.5742 313.22 28.0527 312.341 28.0527C311.451 28.0527 310.877 28.6973 310.877 29.6582V33.25H309.611ZM319.218 33.373C317.449 33.373 316.295 32.1484 316.295 30.168V30.1562C316.295 28.1875 317.461 26.9688 319.213 26.9688C320.97 26.9688 322.142 28.1816 322.142 30.1562V30.168C322.142 32.1543 320.982 33.373 319.218 33.373ZM319.224 32.3125C320.214 32.3125 320.847 31.5273 320.847 30.168V30.1562C320.847 28.8086 320.203 28.0293 319.213 28.0293C318.24 28.0293 317.589 28.8086 317.589 30.1562V30.168C317.589 31.5332 318.234 32.3125 319.224 32.3125ZM323.588 33.25V24.7949H324.853V33.25H323.588ZM329.222 33.373C327.453 33.373 326.299 32.1484 326.299 30.168V30.1562C326.299 28.1875 327.465 26.9688 329.217 26.9688C330.974 26.9688 332.146 28.1816 332.146 30.1562V30.168C332.146 32.1543 330.986 33.373 329.222 33.373ZM329.228 32.3125C330.219 32.3125 330.851 31.5273 330.851 30.168V30.1562C330.851 28.8086 330.207 28.0293 329.217 28.0293C328.244 28.0293 327.594 28.8086 327.594 30.1562V30.168C327.594 31.5332 328.238 32.3125 329.228 32.3125ZM336.246 35.4238C334.664 35.4238 333.662 34.6914 333.474 33.748L333.469 33.6953H334.723L334.746 33.7422C334.916 34.1348 335.449 34.4043 336.24 34.4043C337.248 34.4043 337.805 33.8652 337.805 33.0039V32.1602H337.775C337.424 32.8281 336.721 33.2559 335.836 33.2559C334.289 33.2559 333.269 32.043 333.269 30.1211V30.1152C333.269 28.1816 334.301 26.9688 335.865 26.9688C336.732 26.9688 337.412 27.4375 337.775 28.1348H337.805V27.0859H339.076V33.0801C339.076 34.4863 337.986 35.4238 336.246 35.4238ZM336.193 32.2246C337.16 32.2246 337.805 31.4102 337.805 30.1387V30.1328C337.805 28.8672 337.154 28.0527 336.193 28.0527C335.191 28.0527 334.564 28.8613 334.564 30.1328V30.1387C334.564 31.4277 335.191 32.2246 336.193 32.2246ZM341.477 35.3066C341.23 35.3066 340.967 35.2773 340.814 35.248V34.2578C340.914 34.2812 341.061 34.3047 341.23 34.3047C341.828 34.3047 342.156 34.1465 342.367 33.5488L342.473 33.2559L340.228 27.0859H341.6L343.152 32.1016H343.193L344.746 27.0859H346.082L343.785 33.5371C343.328 34.8145 342.684 35.3066 341.477 35.3066Z" fill="#373D4E"></path><defs><clipPath id="clip0_367_3787"><rect width="32.8358" height="40" fill="white"></rect></clipPath></defs></svg>